<?xml version="1.0" encoding="utf-8"?>
<!-- Generator: Adobe Illustrator 27.8.0, SVG Export Plug-In . SVG Version: 6.00 Build 0)  -->
<svg version="1.1" id="Layer_1" xmlns="http://www.w3.org/2000/svg" xmlns:xlink="http://www.w3.org/1999/xlink" x="0px" y="0px"
	 viewBox="0 0 16 16" style="enable-background:new 0 0 16 16;" xml:space="preserve">
<path d="M12.8,12.2c0,0.4,0,0.9,0,1.3c0,0.6-0.3,0.9-0.9,0.9c-0.4,0-0.9,0-1.3,0c-0.7,0-0.9-0.3-1-0.9c0-0.1,0-0.2,0-0.4
	c-0.6,0-1.1,0.1-1.7,0.1c-0.4-0.9-1.2-1-2-1.1c-0.6-0.1-1.1-0.2-1.7-0.3c-0.6-0.1-0.9-0.3-1-1c-0.1-0.3-0.2-0.5-0.5-0.5
	c-0.3,0-0.4,0.3-0.3,0.6c0.1,0.9,0.7,1.5,1.7,1.6c0.8,0.1,1.6,0.3,2.4,0.4c0.5,0.1,0.7,0.3,0.7,0.7c0,0.4-0.3,0.6-0.8,0.6
	c-1.3,0-2.6,0-3.9-0.1c-1.1-0.1-1.9-0.8-2.3-1.8c-0.4-1.1-0.3-2.1,0.4-3c1-1,2-2,3.1-2.8c2.1-1.6,4.8-1.5,6.9,0.1
	c0.4,0.3,0.8,0.6,1.2,0.9C12.2,8,12.6,8.1,13,7.9c0.4-0.2,0.6-0.6,0.6-1c0-0.3,0-0.5,0-0.8c-0.1-0.7-0.8-1.2-1.5-1.3
	c-0.5,0-1.1,0-1.6,0C9.6,4.7,9.1,4,9.3,3.2C9.4,3,9.5,2.8,9.7,2.7C10,2.4,10.2,2.2,10.5,2c0.2-0.2,0.5-0.4,0.8-0.4
	c2.5,0,4.6,2,4.7,4.6c0,1,0,1.9-0.3,2.9c-0.5,1.3-1.3,2.2-2.5,2.9c-0.1,0-0.2,0.1-0.2,0.1C12.9,12.1,12.9,12.2,12.8,12.2z M12,2.8
	c0-0.3-0.1-0.4-0.4-0.4c-0.3,0-0.4,0.1-0.4,0.4c0,0.2,0.1,0.4,0.4,0.4C11.9,3.2,12,3.1,12,2.8z"/>
</svg>
